<?xml version="1.0" standalone="no"?>
<!DOCTYPE svg PUBLIC "-//W3C//DTD SVG 20010904//EN"
 "http://www.w3.org/TR/2001/REC-SVG-20010904/DTD/svg10.dtd">
<svg version="1.0" xmlns="http://www.w3.org/2000/svg"
 width="600.000000pt" height="600.000000pt" viewBox="0 0 600.000000 600.000000"
 preserveAspectRatio="xMidYMid meet">
<metadata>
Created by potrace 1.14, written by Peter Selinger 2001-2017
</metadata>
<g transform="translate(0.000000,600.000000) scale(0.100000,-0.100000)"
fill="#000000" stroke="none">
<path d="M1453 5176 l-28 -24 0 -1164 0 -1163 28 -120 c144 -603 649 -1294
1275 -1742 108 -77 240 -153 267 -153 29 0 201 107 331 206 517 393 980 1001
1148 1505 49 150 71 249 86 389 14 133 13 2200 0 2236 -22 57 76 53 -1562 54
l-1517 0 -28 -24z m3031 -351 l-1 -300 -1349 -3 c-742 -1 -1413 1 -1491 4
l-143 6 0 299 0 298 1492 -2 1492 -2 0 -300z m-2440 -383 c-6 -4 -16 -16 -22
-27 -11 -19 -11 -18 -12 8 0 21 5 27 23 27 12 0 17 -3 11 -8z m113 -30 c-24
-23 -30 -25 -47 -14 -26 16 -46 6 -29 -14 9 -11 9 -17 -1 -29 -6 -8 -9 -18 -6
-23 3 -6 -10 -22 -29 -36 -37 -29 -49 -21 -15 9 11 10 20 26 20 35 0 9 6 22
13 29 10 11 8 12 -10 6 -30 -9 -29 3 4 37 29 30 67 39 57 13 -9 -22 20 -19 41
5 10 11 21 18 24 15 3 -3 -7 -18 -22 -33z m512 -2 c8 0 11 6 7 15 -10 26 28
17 57 -13 33 -34 34 -46 5 -37 -19 6 -21 5 -10 -6 6 -7 12 -20 12 -29 0 -9 9
-25 20 -35 34 -30 22 -38 -15 -9 -19 14 -32 30 -29 36 3 5 0 15 -6 23 -10 12
-10 18 -1 29 17 20 -3 30 -28 14 -17 -10 -24 -9 -46 12 -14 13 -25 28 -25 33
0 6 10 1 23 -11 13 -12 29 -22 36 -22z m110 13 c0 -16 -3 -21 -6 -13 -3 8 -12
21 -21 28 -14 10 -13 12 6 12 18 0 22 -6 21 -27z m-434 -43 c-3 -5 -19 -10
-35 -10 -16 0 -32 -5 -36 -11 -4 -7 1 -9 14 -7 11 2 29 -5 41 -16 23 -21 51
-15 51 10 0 10 -5 14 -15 10 -23 -8 -18 12 6 25 16 8 27 8 45 -2 28 -15 31
-27 7 -25 -10 0 -17 -5 -15 -11 1 -7 -3 -13 -9 -13 -6 0 -25 -10 -42 -22 -17
-12 -49 -25 -71 -28 -35 -4 -41 -9 -44 -32 -2 -14 -10 -32 -18 -39 -13 -10
-12 -14 2 -31 16 -17 16 -19 -2 -33 -10 -8 -24 -15 -30 -15 -7 0 -15 -7 -18
-16 -5 -12 -1 -14 17 -8 12 4 27 14 34 23 11 15 12 15 13 -1 0 -9 -13 -22 -30
-30 -16 -7 -30 -18 -30 -25 0 -16 31 -4 50 19 8 11 31 21 50 23 l35 4 -35 -30
c-28 -24 -31 -29 -15 -29 11 0 26 9 33 20 13 22 37 26 47 9 11 -17 -27 -51
-52 -46 -13 2 -23 1 -23 -3 0 -11 27 -20 56 -20 13 0 24 -4 24 -10 0 -18 -44
-10 -89 15 -23 14 -54 25 -68 25 -36 0 -63 18 -63 43 0 13 -15 35 -34 52 -29
25 -34 35 -29 61 3 20 15 37 34 48 19 11 29 25 29 41 0 27 25 45 62 45 13 0
41 11 63 24 40 24 102 35 90 16z m185 -12 c19 -11 48 -23 63 -24 43 -6 67 -22
67 -48 0 -17 11 -30 36 -45 32 -19 35 -24 29 -54 -9 -38 -20 -54 -46 -62 -12
-4 -19 -16 -19 -32 0 -32 -25 -52 -64 -53 -16 0 -49 -12 -73 -26 -24 -14 -54
-24 -66 -21 -24 4 -13 11 36 21 15 4 27 11 27 17 0 6 -9 8 -22 4 -15 -6 -26
-1 -38 15 -16 22 -19 22 -40 7 l-24 -16 24 -9 23 -9 -23 -16 c-21 -14 -25 -14
-49 1 l-25 17 23 3 c16 3 21 8 16 20 -3 9 -3 13 0 10 4 -4 28 7 55 23 26 16
61 29 79 29 27 0 31 3 31 26 0 15 8 33 18 40 16 12 16 14 -3 28 l-20 15 20 15
c23 17 51 21 60 7 3 -6 -2 -14 -11 -19 -10 -5 -14 -14 -9 -21 5 -9 11 -8 24 3
13 12 20 13 29 4 16 -16 15 -33 -2 -47 -10 -9 -15 -8 -20 4 -3 8 -12 15 -21
15 -18 0 -20 -26 -2 -33 9 -4 9 -7 -1 -18 -10 -11 -16 -11 -34 0 -19 12 -20
11 -14 -5 4 -10 1 -21 -6 -25 -9 -6 -9 -11 0 -22 18 -21 52 -28 52 -11 0 8 -7
14 -15 14 -8 0 -15 5 -15 11 0 6 9 8 22 4 17 -6 20 -4 15 9 -4 10 -1 16 7 16
8 0 26 14 40 31 30 35 25 55 -24 91 -16 11 -27 24 -25 28 3 4 -7 8 -20 8 -15
0 -25 -6 -25 -14 0 -8 -4 -14 -10 -14 -5 0 -10 4 -10 8 0 14 23 32 42 32 10 0
18 6 18 14 0 23 -37 14 -51 -11 -14 -26 -52 -30 -94 -11 -31 14 -31 19 -2 47
16 14 30 19 42 15 13 -5 16 -4 11 4 -4 7 -20 12 -36 12 -16 0 -32 5 -35 10
-11 19 49 10 85 -12z m-65 -154 c19 -14 19 -15 -10 -39 -46 -37 -60 -39 -104
-9 -23 15 -41 29 -41 33 0 3 19 18 42 33 45 29 50 28 113 -18z m838 -46 c18
16 19 16 16 -10 -3 -18 2 -32 16 -42 19 -15 19 -15 -7 -16 -18 0 -29 -7 -33
-20 -3 -11 -11 -20 -16 -20 -5 0 -9 9 -9 20 0 15 -7 20 -27 20 -25 0 -26 1 -8
20 9 10 15 26 12 34 -8 21 5 28 22 11 13 -13 17 -13 34 3z m365 -55 c53 -33
104 -89 135 -148 28 -55 31 -68 32 -155 0 -88 -3 -101 -33 -162 -38 -77 -92
-130 -171 -167 -48 -22 -69 -26 -151 -26 -97 1 -154 17 -205 60 -19 15 -18 16
20 8 140 -28 269 9 355 104 70 76 93 144 88 253 -5 91 -29 153 -82 214 -37 42
-34 47 12 19z m-1593 -76 c11 -21 12 -34 4 -43 -15 -18 6 -27 31 -12 17 11 24
9 52 -20 l33 -32 -33 -32 c-28 -29 -35 -31 -52 -20 -26 16 -46 6 -29 -14 9
-11 9 -18 1 -26 -7 -7 -12 -19 -13 -28 0 -8 -13 -25 -30 -38 -33 -26 -40 -15
-9 13 11 10 19 23 17 29 -3 6 3 19 12 30 15 18 15 18 -6 12 -30 -10 -29 2 4
36 29 30 67 39 57 13 -9 -22 20 -18 42 6 18 20 18 21 -6 40 -30 23 -44 24 -36
4 9 -25 -25 -18 -56 12 -34 32 -36 47 -5 37 21 -6 21 -6 6 12 -9 11 -15 24
-12 30 2 6 -6 19 -17 29 -11 10 -20 23 -20 28 0 16 49 -34 65 -66z m685 38
c-13 -14 -20 -28 -17 -32 4 -3 -1 -15 -10 -26 -17 -19 -17 -19 5 -13 30 10 28
-5 -6 -37 -31 -30 -65 -37 -56 -12 8 21 -9 19 -37 -5 l-24 -20 24 -20 c28 -24
45 -26 37 -5 -10 26 28 17 57 -13 33 -34 34 -46 5 -36 -22 6 -22 6 -7 -12 9
-11 15 -24 12 -30 -2 -6 6 -19 17 -29 11 -10 20 -23 20 -28 0 -16 -49 34 -65
66 -11 21 -12 34 -4 43 14 17 -7 29 -26 14 -16 -13 -40 -3 -70 30 -19 21 -19
21 14 52 29 27 36 30 53 19 24 -15 44 -5 28 14 -8 10 -8 20 2 37 18 32 61 79
66 73 3 -3 -5 -16 -18 -30z m705 -7 c6 0 18 3 29 7 16 7 17 5 7 -12 -8 -16 -7
-24 4 -33 21 -17 19 -30 -4 -30 -12 0 -23 -9 -27 -22 l-7 -23 -10 23 c-6 14
-19 22 -34 22 -27 0 -30 15 -7 28 11 6 15 17 11 32 -4 17 -2 20 11 15 9 -4 22
-7 27 -7z m-195 -88 c13 -7 21 -7 25 0 11 18 27 11 22 -10 -3 -13 2 -25 16
-35 21 -14 19 -17 -13 -19 -8 -1 -19 -11 -26 -23 l-11 -23 -11 26 c-7 14 -17
22 -22 19 -6 -3 -15 -3 -22 1 -8 5 -6 11 7 20 11 8 16 21 12 34 -6 23 -3 24
23 10z m-1240 -72 l-20 -22 0 42 0 42 20 -20 20 -20 -20 -22z m750 22 c0 -40
0 -40 -20 -20 -19 19 -19 21 -3 40 10 11 19 20 20 20 2 0 3 -18 3 -40z m357
-45 c-3 -18 2 -30 17 -40 20 -15 20 -15 -6 -15 -18 0 -29 -7 -33 -20 -3 -11
-10 -20 -15 -20 -4 0 -10 9 -13 20 -3 13 -14 20 -29 20 -22 1 -22 1 -4 15 12
9 17 22 13 35 -6 23 -3 24 23 10 13 -7 21 -6 30 5 18 22 23 18 17 -10z m-657
-30 c0 -11 11 -15 35 -15 22 0 38 -6 41 -15 4 -9 19 -15 39 -15 18 0 35 -4 37
-10 2 -5 19 -11 38 -13 35 -2 35 -3 38 -56 2 -40 0 -52 -10 -49 -8 3 -12 18
-11 41 3 37 2 37 -37 37 -39 0 -40 -1 -40 -35 0 -34 -1 -35 -40 -35 l-40 0 0
45 0 45 43 2 42 1 -38 4 c-21 2 -41 11 -44 19 -3 8 -19 14 -39 14 -34 0 -34
-1 -34 -45 0 -39 -3 -45 -21 -45 -16 0 -19 4 -14 20 4 12 2 20 -5 20 -7 0 -10
6 -7 14 3 7 0 19 -6 25 -9 9 -8 14 3 21 9 6 16 6 18 0 2 -5 10 -6 18 -3 28 11
1 23 -51 23 -52 0 -79 -12 -51 -23 8 -3 16 -2 18 3 2 6 9 6 17 0 12 -7 12 -11
2 -24 -7 -8 -10 -20 -6 -26 3 -5 1 -10 -5 -10 -7 0 -9 -8 -5 -20 5 -16 2 -20
-14 -20 -18 0 -21 6 -21 45 0 44 0 45 -34 45 -21 0 -36 -6 -40 -15 -3 -10 -19
-15 -42 -15 -45 0 -37 -14 9 -14 30 -1 32 -3 35 -43 l3 -43 -40 0 c-41 0 -41
0 -41 38 l0 38 -41 -4 c-36 -4 -40 -7 -39 -31 3 -41 1 -51 -11 -51 -6 0 -9 21
-7 53 3 52 3 52 37 53 19 0 36 5 39 12 2 7 19 12 38 12 22 0 37 6 40 15 4 9
19 15 39 15 20 0 35 6 39 15 4 12 24 15 86 15 64 0 80 -3 80 -15z m787 -56 c8
-8 17 -8 32 0 19 11 21 9 21 -14 0 -14 7 -28 15 -31 19 -8 9 -24 -14 -24 -10
0 -23 -10 -29 -22 l-11 -23 -7 23 c-4 15 -14 22 -30 22 -27 0 -32 15 -8 24 11
4 14 13 10 31 -7 26 3 32 21 14z m-963 -34 c-4 -9 -1 -15 7 -15 10 0 10 -3 2
-11 -7 -7 -20 -9 -30 -5 -14 6 -15 9 -4 15 7 5 10 14 7 20 -4 6 -1 11 8 11 10
0 13 -6 10 -15z m200 0 c-4 -8 -1 -15 6 -15 10 0 10 -3 0 -15 -10 -12 -16 -13
-27 -4 -10 9 -11 14 -2 19 6 4 8 13 5 19 -4 6 -1 11 8 11 10 0 13 -6 10 -15z
m-346 -57 c-6 -18 -28 -21 -28 -4 0 9 7 16 16 16 9 0 14 -5 12 -12z m502 -4
c0 -17 -22 -14 -28 4 -2 7 3 12 12 12 9 0 16 -7 16 -16z m-250 -4 c0 -14 39
-32 51 -24 8 4 7 9 -2 15 -8 5 -9 9 -3 9 19 0 24 -13 12 -27 -9 -11 -9 -16 1
-23 8 -4 10 -13 7 -19 -11 -16 -26 -13 -20 4 10 24 -23 18 -41 -7 -17 -25 -24
-25 -43 3 -16 24 -42 25 -42 2 0 -14 -3 -14 -12 -5 -10 10 -10 15 1 22 12 7
12 12 3 23 -12 14 -7 27 12 27 6 0 4 -4 -4 -10 -12 -7 -11 -10 5 -16 13 -5 23
-1 34 14 16 22 41 29 41 12z m300 -111 l0 -49 -40 0 c-29 0 -40 -4 -40 -15 0
-11 -11 -15 -35 -15 -22 0 -38 -6 -41 -15 -4 -9 -19 -15 -39 -15 -18 0 -35 -6
-38 -12 -5 -16 -160 -13 -165 2 -2 6 -19 10 -38 10 -24 0 -34 5 -34 15 0 11
-11 15 -40 15 -29 0 -40 4 -40 15 0 11 -11 15 -40 15 l-40 0 0 50 c0 28 5 50
10 50 11 0 13 -11 10 -52 -1 -26 1 -28 39 -28 l41 0 0 41 0 40 38 -3 c36 -3
37 -4 40 -45 l3 -43 -40 0 c-23 0 -41 -4 -41 -10 0 -5 16 -10 35 -10 22 0 38
-6 41 -15 4 -9 19 -15 40 -15 34 0 34 1 34 45 0 39 3 45 21 45 16 0 19 -4 14
-21 -5 -15 -4 -19 4 -15 7 5 10 -1 8 -16 -1 -17 3 -23 18 -23 15 0 19 6 18 23
-2 15 1 21 8 16 8 -4 9 0 4 15 -5 17 -2 21 14 21 18 0 21 -6 21 -45 0 -44 0
-45 34 -45 21 0 36 6 40 15 3 9 19 15 41 15 22 0 34 4 30 10 -3 6 -22 10 -41
10 -35 0 -35 0 -32 43 3 41 4 42 41 45 l37 3 0 -40 0 -41 41 0 42 0 -6 39 c-3
22 -3 42 0 45 14 13 23 -9 23 -55z m-558 26 c0 -5 -5 -11 -11 -13 -6 -2 -11 4
-11 13 0 9 5 15 11 13 6 -2 11 -8 11 -13z m508 0 c0 -8 -4 -15 -9 -15 -13 0
-22 16 -14 24 11 11 23 6 23 -9z m-350 -45 c-7 -4 -11 -10 -11 -14 1 -3 -2 -6
-6 -5 -5 1 -7 5 -5 10 1 5 -3 9 -9 9 -8 0 -8 5 1 15 10 12 16 13 27 4 10 -9
11 -14 3 -19z m202 2 c-6 -2 -8 -10 -5 -19 4 -11 2 -14 -8 -11 -8 3 -13 13
-11 23 2 12 -1 15 -10 9 -10 -6 -10 -4 1 9 11 14 17 15 28 5 9 -7 11 -14 5
-16z m-459 -30 c15 -16 24 -31 21 -35 -4 -4 -1 -13 6 -22 10 -11 10 -18 1 -29
-17 -20 3 -30 29 -14 17 11 24 9 51 -19 l32 -31 -34 -30 c-25 -23 -38 -28 -51
-21 -29 15 -39 11 -26 -11 11 -17 10 -22 -1 -29 -7 -5 -11 -13 -8 -18 4 -6 -9
-25 -28 -43 -19 -19 -35 -28 -35 -21 0 8 10 22 22 32 11 11 18 22 15 26 -4 3
1 15 10 26 17 19 17 19 -4 13 -33 -11 -29 10 9 42 35 29 52 34 54 15 1 -7 2
-16 3 -20 0 -3 12 4 26 17 l25 24 -21 22 c-23 25 -42 24 -32 -1 9 -24 -22 -18
-56 11 -35 29 -41 48 -11 39 11 -3 20 -4 20 -2 0 11 -32 66 -45 77 -16 13 -20
30 -7 30 5 0 20 -13 35 -28z m727 19 c0 -5 -7 -14 -15 -21 -22 -18 -45 -69
-34 -76 5 -3 9 0 9 7 0 10 3 10 12 1 9 -9 5 -19 -17 -42 -29 -30 -59 -36 -61
-12 -1 6 -2 15 -3 19 0 3 -12 -4 -26 -17 l-25 -24 22 -23 c21 -23 33 -23 33 0
0 20 21 14 54 -16 31 -27 40 -47 21 -47 -5 0 -10 5 -10 11 0 5 -5 7 -10 4 -8
-5 -7 -12 2 -22 6 -8 13 -22 14 -30 1 -8 11 -21 21 -28 10 -7 15 -17 10 -21
-10 -10 -68 46 -60 59 3 5 -1 13 -8 18 -11 7 -12 12 -2 28 16 25 5 34 -21 17
-19 -12 -25 -11 -56 15 l-34 29 34 35 c31 32 35 34 51 19 22 -20 46 -9 28 12
-9 11 -9 18 1 29 7 9 10 18 6 22 -3 4 6 19 21 35 27 28 43 35 43 19z m-742
-157 c13 -9 12 -14 -6 -32 l-22 -22 1 48 c0 26 3 40 6 32 4 -8 13 -20 21 -26z
m742 -9 l0 -45 -20 20 c-20 20 -20 21 -3 45 10 13 19 25 21 25 1 0 2 -20 2
-45z m-180 -114 c0 -14 8 -21 28 -23 l27 -3 0 -130 0 -130 -27 -3 c-20 -2 -28
-9 -28 -23 0 -18 -9 -19 -199 -19 -188 0 -199 1 -204 19 -3 12 -15 21 -33 23
l-29 3 0 130 0 130 26 3 c17 2 29 11 32 23 5 18 15 19 206 19 192 0 201 -1
201 -19z m-523 -319 c13 -27 14 -35 4 -42 -10 -5 -10 -9 -2 -15 7 -4 18 -1 26
5 16 13 22 10 69 -33 20 -17 20 -18 -12 -50 -28 -28 -35 -30 -52 -19 -26 16
-46 6 -29 -14 9 -11 9 -17 -1 -29 -6 -8 -9 -18 -6 -23 6 -10 -54 -65 -62 -57
-3 3 4 15 16 28 12 13 22 31 22 40 0 9 5 17 10 17 6 0 10 5 10 11 0 6 -9 8
-20 4 -27 -9 -25 4 7 37 29 30 67 39 57 13 -9 -22 20 -18 42 6 18 20 18 21 -6
40 -30 22 -44 24 -37 4 11 -28 -12 -25 -47 6 -41 36 -47 54 -13 43 21 -6 21
-6 6 12 -9 11 -14 24 -12 31 2 6 -5 17 -16 23 -12 6 -21 18 -21 27 0 24 46
-22 67 -65z m684 42 c-12 -8 -21 -23 -21 -33 0 -9 -6 -23 -12 -30 -11 -11 -9
-12 10 -6 31 9 28 -9 -10 -44 -31 -29 -62 -32 -51 -5 7 20 -8 17 -36 -7 -23
-19 -23 -20 -6 -39 21 -24 50 -27 41 -5 -10 26 28 17 57 -13 32 -33 34 -46 7
-37 -11 4 -20 2 -20 -4 0 -6 5 -11 10 -11 6 0 10 -8 10 -18 0 -11 9 -27 20
-37 33 -30 23 -40 -12 -12 -18 14 -32 31 -30 37 1 7 -3 18 -9 26 -9 11 -9 17
0 28 17 20 -3 30 -28 14 -18 -11 -24 -9 -51 17 -16 16 -30 31 -30 34 0 3 16
19 36 35 26 21 39 25 47 17 17 -17 29 -13 22 8 -3 11 0 30 7 43 21 38 62 80
66 68 3 -7 -5 -18 -17 -26z m-724 -157 c-8 -7 -17 -19 -20 -27 -3 -8 -6 6 -6
33 l-1 47 21 -21 c18 -18 19 -22 6 -32z m743 6 c-1 -41 -2 -45 -12 -28 -6 11
-16 23 -21 26 -7 5 17 44 31 48 1 1 2 -20 2 -46z m-385 -44 c11 0 41 0 67 2
46 2 83 -14 73 -32 -3 -4 18 -9 47 -11 49 -3 53 -5 56 -30 3 -22 9 -28 28 -28
19 0 24 -5 24 -25 0 -21 5 -25 30 -25 l31 0 -3 -67 c-3 -66 -4 -68 -30 -71
-22 -3 -28 -9 -28 -28 0 -19 -5 -24 -24 -24 -19 0 -25 -6 -28 -27 -3 -26 -7
-28 -56 -31 -29 -2 -50 -7 -47 -12 11 -17 -34 -37 -77 -33 -73 5 -82 5 -122
-1 -41 -7 -92 15 -81 34 4 6 -17 10 -49 10 -56 0 -56 0 -56 30 0 25 -4 30 -25
30 -20 0 -25 5 -25 25 0 21 -5 25 -29 25 l-29 0 2 68 c1 65 2 67 29 70 21 3
27 9 27 28 0 19 5 24 24 24 19 0 25 6 28 28 3 25 7 27 58 32 31 3 53 9 51 15
-7 17 42 36 79 30 19 -3 44 -6 55 -6z m-321 -371 c-3 -5 0 -15 6 -23 10 -12
10 -18 1 -29 -17 -20 3 -30 29 -14 17 11 24 9 52 -19 32 -32 32 -32 13 -54
-30 -32 -54 -42 -70 -29 -20 16 -40 3 -24 -16 8 -10 9 -18 0 -27 -6 -8 -9 -16
-6 -19 3 -2 -11 -20 -30 -38 -26 -25 -35 -30 -35 -17 0 9 9 21 21 27 11 7 18
18 15 25 -2 7 2 19 9 25 8 7 12 17 9 22 -4 6 -10 5 -15 -3 -4 -7 -12 -10 -16
-5 -10 10 64 79 77 71 5 -3 7 -12 3 -20 -7 -20 7 -18 37 4 24 19 24 20 6 40
-22 24 -51 28 -42 6 9 -25 -25 -18 -56 12 -33 31 -36 47 -8 38 11 -4 20 -2 20
4 0 6 -4 11 -10 11 -5 0 -10 8 -10 18 0 11 -9 27 -20 37 -34 30 -22 38 15 9
19 -14 32 -30 29 -36z m690 29 c-20 -23 -44 -63 -44 -73 0 -3 9 -2 20 1 28 9
25 -7 -8 -38 -31 -30 -65 -37 -56 -12 9 22 -20 19 -41 -5 -17 -19 -17 -20 6
-39 28 -24 43 -27 36 -7 -10 27 19 24 51 -5 32 -29 41 -49 22 -49 -5 0 -10 5
-10 11 0 5 -5 7 -11 3 -8 -4 -8 -9 0 -17 6 -6 11 -19 11 -29 0 -10 9 -23 20
-30 11 -7 20 -19 20 -27 0 -10 -10 -5 -30 14 -16 16 -30 37 -30 47 0 10 -4 18
-10 18 -5 0 -10 7 -10 15 0 8 5 15 12 15 9 0 9 3 1 11 -8 8 -17 8 -30 0 -16
-8 -26 -5 -54 19 l-34 29 33 33 c28 29 34 31 52 20 26 -16 46 -6 29 14 -9 11
-9 17 0 28 6 8 10 19 9 25 -3 11 54 62 61 55 3 -2 -4 -14 -15 -27z m-721 -138
c5 -4 0 -16 -12 -28 l-21 -21 0 48 c1 40 2 44 12 27 6 -11 16 -23 21 -26z
m737 -6 l0 -47 -22 24 c-20 21 -20 24 -5 35 9 7 17 17 17 24 0 6 2 11 5 11 3
0 5 -21 5 -47z m-203 -110 l93 -48 0 -81 0 -81 -99 -51 c-95 -50 -102 -52
-178 -52 -77 0 -84 2 -177 51 l-97 51 3 80 3 81 90 48 c88 48 92 49 180 49 88
1 92 0 182 -47z m-483 -269 c3 -9 6 -25 6 -36 0 -17 -3 -18 -15 -8 -16 13 -21
60 -6 60 5 0 12 -7 15 -16z m626 -8 c0 -13 -7 -29 -15 -36 -12 -10 -15 -9 -15
8 0 27 10 52 21 52 5 0 9 -11 9 -24z m-606 -61 c8 11 16 16 16 12 0 -8 -18
-47 -26 -56 -8 -9 -44 33 -44 52 0 18 2 17 19 -4 20 -24 20 -24 35 -4z m598 2
c15 14 18 14 18 1 0 -15 -37 -55 -44 -47 -7 9 -26 48 -26 55 0 5 8 1 17 -9 16
-15 18 -15 35 0z m-572 -81 c-10 -28 -18 -28 -52 2 -26 22 -22 36 4 18 30 -21
38 -20 38 6 0 15 3 19 10 12 8 -8 8 -19 0 -38z m528 4 c4 0 18 7 30 16 12 8
22 11 22 5 0 -10 -48 -51 -60 -51 -10 0 -20 53 -12 65 4 5 8 0 10 -12 2 -13 7
-23 10 -23z m-479 -50 c9 -28 8 -30 -14 -30 -31 0 -72 19 -79 36 -7 18 2 17
34 -1 34 -19 39 -18 33 5 -8 32 14 23 26 -10z m438 10 c-6 -23 -1 -24 33 -5
30 17 40 18 40 5 0 -14 -55 -40 -84 -40 -23 0 -24 2 -15 30 12 33 34 42 26 10z
m-372 -59 c4 -14 24 -16 140 -16 116 0 136 2 140 16 6 18 45 57 45 45 0 -4 -5
-16 -10 -27 -10 -18 -8 -19 32 -14 40 6 42 5 24 -9 -11 -9 -36 -17 -55 -17
l-36 -1 30 -7 30 -7 -32 -8 c-18 -4 -43 -5 -55 -1 -13 4 -32 9 -43 11 -20 5
-20 5 -1 -10 31 -25 11 -31 -22 -7 -38 26 -56 26 -94 0 -33 -24 -53 -18 -22 7
18 15 18 15 -3 10 -13 -4 -32 -9 -43 -12 -11 -3 -35 -2 -53 2 l-32 8 30 7 30
7 -36 1 c-19 0 -44 8 -55 17 -18 14 -16 15 23 11 39 -5 42 -3 33 13 -6 10 -10
22 -10 26 0 12 39 -27 45 -45z"/>
<path d="M2936 5002 c-14 -3 -16 -27 -16 -193 l0 -190 87 3 87 3 -1 33 c-1 17
-2 36 -2 40 -1 4 -17 6 -36 4 -35 -4 -35 -4 -35 37 0 39 2 41 30 41 28 0 30 2
30 40 0 38 -2 40 -30 40 -27 0 -30 3 -30 30 0 28 3 30 35 30 34 0 35 1 35 39
l0 39 -69 4 c-38 2 -76 2 -85 0z"/>
<path d="M3137 5002 l-27 -3 2 -187 3 -187 42 -3 42 -3 3 68 3 68 20 -65 21
-65 44 0 45 0 3 188 2 187 -45 0 -45 0 -1 -67 -1 -68 -21 67 c-21 70 -30 77
-90 70z"/>
<path d="M3560 4997 c-53 -18 -74 -78 -51 -141 6 -13 35 -43 65 -66 50 -36 56
-45 56 -76 0 -48 -24 -40 -28 10 l-3 37 -47 -3 c-45 -3 -47 -4 -45 -33 6 -77
36 -105 112 -105 76 0 111 33 111 105 0 56 -16 82 -75 121 -46 31 -55 42 -55
66 0 34 23 34 28 0 3 -19 10 -22 48 -22 l45 0 -3 37 c-5 63 -82 97 -158 70z"/>
<path d="M1570 4960 c0 -38 2 -40 30 -40 l30 0 0 -150 0 -149 48 2 47 2 3 147
3 147 27 3 c23 3 27 8 30 41 l3 37 -110 0 -111 0 0 -40z"/>
<path d="M1810 4836 l0 -164 31 -26 c24 -20 41 -26 81 -26 41 0 54 5 79 29
l29 29 0 161 0 161 -50 0 -50 0 0 -160 c0 -212 -19 -214 -22 -2 l-3 157 -47 3
-48 3 0 -165z"/>
<path d="M2070 4815 l0 -185 50 0 50 0 0 80 c0 47 4 80 10 80 6 0 10 -33 10
-80 l0 -80 50 0 50 0 0 75 c0 62 -4 79 -20 95 l-20 20 20 20 c23 23 26 75 9
114 -15 33 -56 46 -140 46 l-69 0 0 -185z m120 74 c0 -21 -4 -39 -10 -39 -5 0
-10 21 -10 46 0 27 4 43 10 39 6 -3 10 -24 10 -46z"/>
<path d="M2322 4814 l3 -187 47 -3 47 -4 3 68 3 67 11 -40 c7 -22 15 -52 18
-67 6 -26 10 -28 56 -28 33 0 50 4 50 13 0 6 -11 48 -25 92 -14 44 -25 90 -25
102 0 19 27 112 45 156 6 15 1 17 -42 17 l-49 0 -20 -57 -19 -58 -3 58 -3 57
-50 0 -49 0 2 -186z"/>
<path d="M2580 4809 l0 -190 43 3 42 3 5 80 5 80 8 -71 c11 -86 16 -96 53 -92
28 3 29 6 40 78 l11 75 4 -75 4 -75 42 -3 c54 -4 55 -2 51 208 l-3 165 -67 3
-67 3 -5 -33 c-3 -18 -7 -46 -9 -63 -3 -29 -3 -29 -9 -5 -4 14 -10 42 -13 63
l-6 37 -64 0 -65 0 0 -191z"/>
<path d="M3372 4813 l3 -188 50 0 50 0 0 185 0 185 -53 3 -52 3 2 -188z"/>
<path d="M3740 4966 c0 -30 3 -35 28 -38 l27 -3 3 -147 3 -148 49 0 50 0 0
150 0 150 25 0 c14 0 26 5 26 10 7 58 12 55 -104 58 l-107 3 0 -35z"/>
<path d="M3985 4988 c-5 -16 -45 -314 -45 -340 0 -15 8 -18 50 -18 49 0 50 1
50 30 0 23 4 30 20 30 16 0 20 -7 20 -30 0 -29 1 -30 50 -30 36 0 50 4 50 14
0 8 -11 86 -25 173 -14 87 -25 164 -25 171 0 8 -21 12 -70 12 -48 0 -72 -4
-75 -12z m85 -185 c0 -33 -4 -43 -16 -43 -12 0 -15 6 -10 23 3 12 6 38 6 57 0
26 3 31 10 20 5 -8 10 -34 10 -57z"/>
<path d="M4200 4817 l0 -185 40 -4 40 -4 1 76 1 75 22 -68 c27 -82 34 -89 77
-85 l34 3 3 188 2 187 -45 0 -45 0 -1 -67 -1 -68 -22 65 c-23 65 -23 65 -64
68 l-42 3 0 -184z"/>
<path d="M2250 4325 c0 -8 8 -15 18 -15 10 0 23 -5 30 -12 16 -16 15 3 -1 22
-17 21 -47 24 -47 5z"/>
<path d="M2180 4316 c0 -8 8 -17 18 -19 12 -3 11 -5 -6 -6 -14 -1 -20 -5 -17
-12 4 -6 -2 -13 -13 -16 -11 -2 -29 -18 -41 -34 l-22 -30 26 -35 c26 -34 49
-46 39 -20 -3 7 2 16 10 19 9 4 16 11 16 17 0 16 -30 12 -36 -5 -5 -12 -10
-13 -20 -4 -16 13 -18 28 -5 47 7 12 12 12 29 1 27 -17 42 -3 16 15 -19 14
-19 15 0 22 10 4 27 2 38 -5 17 -10 18 -9 12 14 -4 15 -2 25 5 25 8 0 7 6 -1
20 -15 23 -48 27 -48 6z"/>
<path d="M2502 4324 c-12 -8 -22 -20 -22 -27 0 -8 3 -8 12 1 7 7 19 12 28 12
9 0 17 7 17 15 0 19 -7 19 -35 -1z"/>
<path d="M2489 4083 c15 -29 51 -37 51 -12 0 10 -6 19 -14 19 -8 0 -22 3 -31
7 -15 5 -16 3 -6 -14z"/>
<path d="M2368 4226 c-30 -10 -39 -46 -13 -46 8 0 15 -4 15 -10 0 -5 11 -10
25 -10 14 0 25 5 25 10 0 6 7 10 15 10 8 0 15 8 15 18 0 25 -47 41 -82 28z"/>
<path d="M2207 3739 c-7 -26 5 -45 22 -35 14 9 14 18 -2 41 -13 17 -14 17 -20
-6z"/>
<path d="M2566 3752 c-4 -7 -4 -12 1 -12 4 0 1 -5 -7 -10 -12 -7 -12 -12 -2
-22 18 -18 35 3 24 32 -6 15 -11 19 -16 12z"/>
<path d="M2369 3674 c-11 -14 -10 -18 5 -30 13 -9 24 -10 37 -3 22 11 24 20 7
37 -16 16 -33 15 -49 -4z"/>
<path d="M2208 3615 c-8 -9 3 -45 13 -45 5 0 9 7 9 15 0 8 0 18 1 22 1 10 -16
15 -23 8z"/>
<path d="M2558 3615 c-8 -9 3 -45 13 -45 5 0 9 7 9 15 0 8 0 18 1 22 1 10 -16
15 -23 8z"/>
<path d="M2335 3490 c-3 -5 1 -10 9 -10 9 0 16 5 16 10 0 6 -4 10 -9 10 -6 0
-13 -4 -16 -10z"/>
<path d="M2375 3491 c-7 -12 35 -18 65 -10 30 8 27 10 -22 14 -21 2 -40 0 -43
-4z"/>
<path d="M2218 3258 c-2 -18 -11 -24 -35 -26 l-33 -3 0 -105 0 -104 35 0 c31
0 35 -3 35 -25 l0 -25 175 0 175 0 0 25 c0 22 4 25 35 25 l35 0 0 104 0 105
-32 3 c-25 2 -34 8 -36 26 -3 22 -5 22 -177 22 -172 0 -174 0 -177 -22z m162
8 c0 -11 -19 -15 -25 -6 -3 5 1 10 9 10 9 0 16 -2 16 -4z m60 -6 c0 -5 -4 -10
-9 -10 -6 0 -13 5 -16 10 -3 6 1 10 9 10 9 0 16 -4 16 -10z m-220 -69 c0 -6
-5 -13 -10 -16 -15 -9 -43 3 -35 15 8 13 45 13 45 1z m393 -6 c-4 -15 -36 -12
-41 3 -3 9 3 13 19 10 13 -1 23 -7 22 -13z m-168 -30 c14 -13 25 -27 25 -30 0
-14 -57 -54 -77 -55 -18 0 -73 41 -73 55 0 2 10 15 23 29 29 32 71 33 102 1z
m-225 -30 c0 -16 -35 -21 -44 -6 -8 12 4 21 26 21 10 0 18 -7 18 -15z m395 0
c0 -5 -10 -11 -22 -13 -16 -2 -23 2 -23 13 0 11 7 15 23 13 12 -2 22 -7 22
-13z m-395 -60 c0 -16 -35 -21 -44 -6 -8 12 4 21 26 21 10 0 18 -7 18 -15z
m395 0 c0 -5 -10 -11 -22 -13 -16 -2 -23 2 -23 13 0 11 7 15 23 13 12 -2 22
-7 22 -13z m-245 -75 c0 -5 -4 -10 -10 -10 -5 0 -10 5 -10 10 0 6 5 10 10 10
6 0 10 -4 10 -10z m70 0 c0 -5 -7 -10 -15 -10 -8 0 -15 5 -15 10 0 6 7 10 15
10 8 0 15 -4 15 -10z"/>
<path d="M2383 3153 c-18 -6 -16 -42 2 -49 8 -4 22 -1 30 6 24 20 -1 54 -32
43z"/>
<path d="M2313 2793 c15 -3 25 -9 21 -15 -4 -6 1 -8 11 -6 10 1 20 9 23 16 2
8 -9 12 -40 11 -30 -2 -35 -3 -15 -6z"/>
<path d="M2422 2788 c3 -7 15 -14 29 -16 18 -2 20 0 10 7 -11 7 -8 10 15 14
22 3 19 4 -14 6 -31 1 -42 -3 -40 -11z"/>
<path d="M2360 2760 c-25 -13 -56 -18 -110 -17 -74 1 -75 0 -78 -26 -3 -21 -9
-27 -28 -27 -19 0 -24 -5 -24 -25 0 -20 -5 -25 -25 -25 -23 0 -25 -3 -25 -50
0 -47 2 -50 25 -50 20 0 25 -5 25 -25 0 -20 5 -25 25 -25 20 0 25 -5 25 -25 0
-14 3 -25 8 -26 4 -1 43 -2 88 -3 55 -2 88 -8 104 -19 21 -15 26 -14 63 4 31
17 54 20 111 17 71 -3 71 -3 74 25 3 21 9 27 28 27 19 0 24 5 24 25 0 20 5 25
25 25 23 0 25 3 25 50 0 47 -2 50 -25 50 -20 0 -25 5 -25 25 0 20 -5 25 -25
25 -20 0 -25 5 -25 25 0 24 -3 25 -62 26 -95 2 -101 3 -133 21 -28 15 -32 15
-65 -2z m60 -40 c11 -7 4 -10 -25 -10 -29 0 -36 3 -25 10 8 5 20 10 25 10 6 0
17 -5 25 -10z m-104 -105 c4 -8 12 -15 20 -15 22 0 16 -17 -7 -23 -12 -3 -18
-10 -14 -16 4 -7 -12 -11 -47 -11 -44 0 -56 4 -67 22 -10 16 -10 23 -2 26 6 2
11 10 11 18 0 20 98 20 106 -1z m264 -1 c0 -8 5 -12 10 -9 14 9 12 -17 -4 -37
-17 -23 -104 -25 -112 -3 -4 8 -12 15 -20 15 -8 0 -14 5 -14 10 0 6 7 10 15
10 8 0 15 7 15 15 0 12 13 15 55 15 43 0 55 -3 55 -16z m-166 -6 c-15 -7 -28
-7 -40 1 -16 9 -12 10 21 10 35 0 37 -2 19 -11z m6 -38 c11 -7 4 -10 -25 -10
-29 0 -36 3 -25 10 8 5 20 10 25 10 6 0 17 -5 25 -10z m-6 -112 c-15 -7 -28
-7 -40 1 -16 9 -12 10 21 10 35 0 37 -2 19 -11z"/>
<path d="M2246 2601 c-5 -7 -3 -18 3 -24 14 -14 20 -6 11 17 -5 15 -9 16 -14
7z"/>
<path d="M2270 2597 c0 -19 16 -31 24 -18 3 5 -1 14 -9 21 -12 10 -15 10 -15
-3z"/>
<path d="M2500 2587 c1 -21 1 -21 14 -4 10 13 15 15 19 5 2 -7 8 -10 12 -5 11
9 3 17 -24 22 -16 3 -21 -1 -21 -18z"/>
<path d="M2329 2401 c11 -7 8 -10 -15 -14 -22 -3 -19 -4 14 -6 31 -1 42 3 40
12 -3 6 -15 13 -29 15 -18 2 -20 0 -10 -7z"/>
<path d="M2427 2403 c-16 -16 -4 -23 36 -22 32 2 35 3 13 6 -22 4 -26 7 -15
14 11 7 9 9 -7 9 -11 0 -24 -3 -27 -7z"/>
<path d="M2250 2195 c0 -27 9 -32 28 -13 9 9 12 9 12 0 0 -7 7 -12 15 -12 9 0
15 9 15 25 0 28 -9 31 -29 13 -11 -10 -14 -10 -18 0 -8 21 -23 13 -23 -13z"/>
<path d="M2477 2213 c-10 -9 -9 -43 1 -43 4 0 14 6 21 13 11 10 14 10 18 0 8
-22 23 -14 23 12 0 26 -15 34 -23 13 -3 -10 -7 -10 -19 -1 -8 7 -18 10 -21 6z"/>
<path d="M2364 2169 l-29 -19 28 0 c20 0 27 -5 27 -20 0 -11 -4 -20 -10 -20
-5 0 -10 5 -10 10 0 6 -5 10 -11 10 -14 0 -2 -18 21 -30 14 -7 24 -5 42 10 12
11 17 19 11 20 -7 0 -13 -5 -13 -11 0 -5 -4 -7 -10 -4 -20 12 -9 34 18 37 l27
3 -31 17 c-29 16 -32 16 -60 -3z"/>
<path d="M2160 2120 c0 -32 8 -37 29 -17 11 10 14 10 18 0 9 -24 23 -13 23 17
0 30 -14 41 -23 18 -4 -10 -7 -10 -18 0 -21 19 -29 14 -29 -18z"/>
<path d="M2308 2143 c-10 -3 -17 -17 -20 -41 -5 -58 -1 -65 55 -96 48 -25 56
-27 75 -15 26 16 29 31 5 27 -10 -2 -19 4 -21 15 -2 9 1 17 7 17 6 0 11 -4 11
-10 0 -5 5 -10 10 -10 19 0 10 17 -15 30 -20 10 -28 11 -37 2 -9 -9 -9 -12 0
-12 7 0 12 -7 12 -15 0 -20 -47 -20 -67 1 -20 20 -25 84 -6 84 7 0 13 7 13 15
0 8 -1 14 -2 14 -2 -1 -10 -3 -20 -6z"/>
<path d="M2460 2134 c0 -8 5 -14 10 -14 6 0 10 -18 10 -40 0 -22 -4 -40 -10
-40 -5 0 -10 -4 -10 -9 0 -5 9 -7 19 -4 19 5 31 55 23 95 -4 21 -42 32 -42 12z"/>
<path d="M2560 2120 c0 -16 5 -30 10 -30 6 0 10 5 10 10 0 14 27 12 33 -2 3
-9 7 -7 12 5 4 9 4 25 1 34 -6 15 -8 15 -16 3 -8 -12 -13 -13 -30 -2 -18 11
-20 10 -20 -18z"/>
<path d="M2325 2085 c0 -28 7 -30 37 -14 21 11 21 12 -3 25 -33 18 -34 18 -34
-11z"/>
<path d="M2431 2096 l-24 -13 22 -13 c26 -13 30 -11 36 19 4 24 -1 25 -34 7z"/>
<path d="M2160 2045 c0 -14 5 -25 10 -25 6 0 10 5 10 10 0 6 7 10 15 10 8 0
15 -4 15 -10 0 -5 5 -10 10 -10 6 0 10 11 10 25 0 26 -15 34 -23 13 -4 -10 -7
-10 -18 0 -20 18 -29 15 -29 -13z"/>
<path d="M2560 2045 c0 -26 14 -34 24 -12 5 10 7 10 12 0 10 -23 34 -14 34 12
0 27 -9 32 -27 14 -8 -8 -13 -8 -17 0 -12 19 -26 12 -26 -14z"/>
<path d="M2350 2040 c0 -5 5 -10 11 -10 5 0 7 5 4 10 -3 6 -8 10 -11 10 -2 0
-4 -4 -4 -10z"/>
<path d="M2250 1977 c0 -20 5 -23 35 -23 30 0 35 3 35 23 0 13 -4 23 -10 23
-5 0 -10 -4 -10 -10 0 -5 -7 -10 -15 -10 -8 0 -15 5 -15 10 0 6 -4 10 -10 10
-5 0 -10 -10 -10 -23z"/>
<path d="M2470 1977 c0 -30 10 -40 27 -26 10 9 17 8 28 -1 13 -11 15 -8 15 19
0 31 -14 42 -23 19 -4 -10 -7 -10 -18 0 -20 18 -29 15 -29 -11z"/>
<path d="M1326 5132 c-3 -15 -6 -531 -8 -1147 l-2 -1120 27 -128 c74 -348 208
-637 453 -978 268 -373 577 -680 914 -908 196 -133 255 -157 326 -136 158 47
569 370 818 641 403 440 654 863 761 1283 61 240 59 205 57 1386 -1 594 -4
1092 -7 1107 -7 32 -27 28 -43 -8 -8 -17 -11 -326 -11 -1086 1 -1160 3 -1122
-57 -1368 -103 -419 -411 -916 -829 -1335 -145 -146 -179 -177 -317 -286 -205
-161 -350 -255 -398 -259 -45 -4 -55 0 -135 47 -299 176 -649 490 -898 806
-274 347 -456 679 -536 979 -66 250 -63 172 -61 1385 1 734 -2 1109 -9 1122
-17 32 -39 33 -45 3z"/>
</g>
</svg>
